<svg id="Layer_5" fill="#435282" enable-background="new 0 0 64 64" height="100" viewBox="0 0 64 64" width="100" xmlns="http://www.w3.org/2000/svg"><path d="m40 31h2v2h-2z"/><path d="m36 31h2v2h-2z"/><path d="m32 31h2v2h-2z"/><path d="m60 43h-18c-1.654 0-3 1.346-3 3v4h-3c-1.654 0-3-1.346-3-3v-6h10c1.654 0 3-1.346 3-3v-5h1c2.757 0 5-2.243 5-5v-3.051c6.149-.511 11-5.67 11-11.949 0-6.617-5.383-12-12-12s-12 5.383-12 12c0 6.279 4.851 11.438 11 11.949v3.051c0 1.654-1.346 3-3 3h-1v-3c0-1.654-1.346-3-3-3h-10v-11c0-2.757-2.243-5-5-5h-3v-3c0-2.757-2.243-5-5-5h-12c-2.757 0-5 2.243-5 5v9h-2v3c0 2.757 2.243 5 5 5h16c2.757 0 5-2.243 5-5v-3h-2v-4h3c1.654 0 3 1.346 3 3v11h-10c-1.654 0-3 1.346-3 3v3h-5c-2.757 0-5 2.243-5 5v3h-4c-1.654 0-3 1.346-3 3v18c0 1.654 1.346 3 3 3h10c1.654 0 3-1.346 3-3v-18c0-1.654-1.346-3-3-3h-4v-3c0-1.654 1.346-3 3-3h5v5c0 1.654 1.346 3 3 3h10v6c0 2.757 2.243 5 5 5h3v4c0 1.654 1.346 3 3 3h3v2h-2v2h16v-2h-2v-2h3c1.654 0 3-1.346 3-3v-10c0-1.654-1.346-3-3-3zm-18.949-29h3.998c.117 1.423.474 2.768.95 4h-3.646c-.697-1.2-1.158-2.553-1.302-4zm12.781-6c.544 1.216.975 2.571 1.117 4h-7.897c.142-1.429.573-2.784 1.117-4zm-4.61-2c.646-1.062 1.301-1.922 1.778-2.495.477.573 1.132 1.433 1.778 2.495zm11.727 6h-3.998c-.117-1.423-.474-2.768-.95-4h3.646c.697 1.2 1.158 2.553 1.302 4zm0 2c-.144 1.447-.606 2.8-1.302 4h-3.646c.476-1.232.833-2.577.95-4zm-15.9-2h-3.998c.144-1.447.606-2.8 1.302-4h3.646c-.476 1.232-.833 2.577-.95 4zm2.002 2h7.897c-.142 1.429-.573 2.784-1.117 4h-5.664c-.543-1.216-.974-2.571-1.116-4zm5.727 6c-.646 1.062-1.301 1.922-1.778 2.495-.477-.573-1.132-1.433-1.778-2.495zm.608 2.7c.543-.736 1.143-1.65 1.7-2.7h3.043c-1.279 1.303-2.913 2.25-4.743 2.7zm4.743-16.7h-3.043c-.558-1.05-1.158-1.964-1.7-2.7 1.83.45 3.464 1.397 4.743 2.7zm-9.515-2.7c-.543.736-1.143 1.65-1.7 2.7h-3.043c1.279-1.303 2.913-2.25 4.743-2.7zm-4.743 16.7h3.043c.558 1.05 1.158 1.964 1.7 2.7-1.83-.45-3.464-1.397-4.743-2.7zm-18.871-2c0 1.654-1.346 3-3 3h-16c-1.654 0-3-1.346-3-3v-1h22zm-6-3h-10v-8h10zm2 0v-8c0-1.103-.897-2-2-2h-10c-1.103 0-2 .897-2 2v8h-2v-9c0-1.654 1.346-3 3-3h12c1.654 0 3 1.346 3 3v9zm-18 30h12v12h-12zm11 16h-10c-.551 0-1-.448-1-1v-1h12v1c0 .552-.449 1-1 1zm1-19v1h-12v-1c0-.552.449-1 1-1h10c.551 0 1 .448 1 1zm6-15h22c.551 0 1 .449 1 1v7h-24v-7c0-.551.449-1 1-1zm-1 11v-1h24v1c0 .552-.449 1-1 1h-22c-.551 0-1-.448-1-1zm22 7h18c.551 0 1 .448 1 1v7h-20v-7c0-.552.449-1 1-1zm13 16h-8v-2h8zm5-4h-18c-.551 0-1-.448-1-1v-1h20v1c0 .552-.449 1-1 1z"/></svg>