<?xml version="1.0" encoding="iso-8859-1"?>
<!-- Generator: Adobe Illustrator 19.0.0, SVG Export Plug-In . SVG Version: 6.00 Build 0)  -->
<svg version="1.1" id="Capa_1" xmlns="http://www.w3.org/2000/svg" xmlns:xlink="http://www.w3.org/1999/xlink" x="0px" y="0px" fill="#435282" height="100px" width="100px"
	 viewBox="0 0 496.224 496.224" style="enable-background:new 0 0 496.224 496.224;" xml:space="preserve">
<g>
	<g>
		<g>
			<path d="M390.84,198.456L390.84,198.456c31.449-12.516,46.798-48.157,34.281-79.607c-9.29-23.343-31.886-38.652-57.009-38.625
				c-6.87,0.005-13.69,1.176-20.168,3.464c-16.498-35.959-58.211-52.768-95.032-38.296c-23.598-42.553-77.224-57.919-119.778-34.321
				C90.581,34.669,75.215,88.295,98.813,130.848c15.82,28.528,45.136,44.834,75.563,45.376h-14.264
				c-75.076,0.084-135.916,60.924-136,136v176c0,4.418,3.582,8,8,8h288c4.418,0,8-3.582,8-8v-32h72c4.418,0,8-3.582,8-8v-32h56
				c4.418,0,8-3.582,8-8v-117.36C472.018,244.043,437.266,204.529,390.84,198.456z M352.848,98.864
				c4.896-1.76,10.061-2.653,15.264-2.64c25.039,0.031,45.329,20.321,45.36,45.36h-0.016c-0.037,25.047-20.371,45.322-45.418,45.285
				c-14.269-0.021-27.697-6.756-36.246-18.181c14.692-14.046,22.99-33.498,22.96-53.824
				C354.69,109.478,354.052,104.114,352.848,98.864z M345.4,198.44c-0.488,0.064-1.032,0.128-1.544,0.184v0.024
				c-14.033-6.84-29.317-10.739-44.912-11.456c7.147-1.865,13.97-4.8,20.24-8.704C325.932,187.413,335,194.314,345.4,198.44z
				 M259.384,60c30.324-11.448,64.186,3.854,75.633,34.178s-3.854,64.186-34.178,75.633c-23.145,8.738-49.283,2.023-65.352-16.787
				C261.326,129.577,270.723,92.997,259.384,60z M104.112,88.224c0-39.765,32.236-72,72-72c39.765,0,72,32.235,72,72
				c0,39.764-32.235,72-72,72C136.366,160.18,104.156,127.97,104.112,88.224z M218.591,165.17c1.426-0.791,2.83-1.621,4.209-2.49
				c9.931,11.961,23.36,20.511,38.4,24.448c-4.334,0.206-8.654,0.66-12.936,1.36c-17.615-8.086-36.77-12.269-56.152-12.264h-14.79
				C191.328,176.004,205.485,172.438,218.591,165.17z M312.112,480.224h-272v-168c0.075-66.243,53.757-119.925,120-120h32
				c17.887-0.041,35.553,3.957,51.68,11.696c17.072,8.177,31.997,20.231,43.584,35.2c16.124,20.951,24.826,46.667,24.736,73.104
				V480.224z M392.112,440.224h-64v-128c0.102-29.968-9.765-59.119-28.048-82.864c-7.876-10.056-17.117-18.963-27.456-26.464h20.864
				c15.842-0.059,31.46,3.75,45.496,11.096c32.69,16.973,53.189,50.758,53.144,87.592L392.112,440.224z M456.112,400.224h-48v-98.64
				c0.053-33.98-15.003-66.224-41.088-88h11.728c42.683,0.026,77.289,34.597,77.36,77.28V400.224z"/>
			<path d="M228.912,289.824l-25.6-19.2l19.2-25.6c2.594-3.456,1.974-8.348-1.4-11.048l-40-32c-2.923-2.34-7.077-2.34-10,0l-40,32
				c-3.374,2.7-3.994,7.592-1.4,11.048l19.2,25.6l-25.6,19.2c-2.652,1.988-3.804,5.405-2.896,8.592l48,168
				c1.206,4.25,5.63,6.718,9.88,5.512c2.669-0.757,4.754-2.843,5.512-5.512l48-168C232.716,295.229,231.564,291.812,228.912,289.824
				z M176.112,435.104l-38.8-135.784l27.6-20.696c3.535-2.651,4.251-7.665,1.6-11.2l-19.344-25.792l28.944-23.168l28.944,23.2
				l-19.344,25.76c-2.651,3.535-1.935,8.549,1.6,11.2l27.6,20.696L176.112,435.104z"/>
			<path d="M232.112,352.224c0,4.418,3.582,8,8,8h56c4.418,0,8-3.582,8-8s-3.582-8-8-8h-56
				C235.694,344.224,232.112,347.806,232.112,352.224z"/>
		</g>
	</g>
</g>
<g>
</g>
<g>
</g>
<g>
</g>
<g>
</g>
<g>
</g>
<g>
</g>
<g>
</g>
<g>
</g>
<g>
</g>
<g>
</g>
<g>
</g>
<g>
</g>
<g>
</g>
<g>
</g>
<g>
</g>
</svg>
