<svg xmlns="http://www.w3.org/2000/svg" viewBox="0 0 233.78 280.35"><defs><style>.cls-1{fill:#435282;fill-rule:evenodd;}</style></defs><title>isotipo_1</title><g id="Capa_2" data-name="Capa 2"><g id="Capa_1-2" data-name="Capa 1"><path class="cls-1" d="M228.15,44.75a12.33,12.33,0,0,0-2.37-16.17Q188.91,0,141.25,0,91.36,0,54.34,29.27L53,30.33l-1.54,1.25A139.68,139.68,0,0,0,33.36,49.39,131.54,131.54,0,0,0,5.85,100.15a140.36,140.36,0,0,0,.78,82.73,129.61,129.61,0,0,0,7.11,18.38C15.65,205.61,18,212,17,216.72,14.25,230,11.18,243.71,8.3,257c-3,14,.66,19.08,14.46,15.68,12.86-3.18,36.74-8.75,36.74-8.75s8.76-1.93,16.11,1.21q29.33,15.21,65.64,15.24,50.92,0,89.33-32.41a10.81,10.81,0,0,0,2.95-5.81A12.3,12.3,0,0,0,231,231.91c.16.19.32.39.48.57l-34.6-42.64a5.17,5.17,0,0,0-4-1.57,6,6,0,0,0-3.85,1.55l.36-.37q-19.53,20-48.19,20a73,73,0,0,1-14.36-1.38,68.74,68.74,0,0,1-17.84-5.54,12.48,12.48,0,0,0-7.17-.61c-6,1.26-15.85,5-21.81,6.45-6.41,1.58-7.21.37-5.8-6.11,1.34-6.16,3.82-16.82,5.08-23a12.07,12.07,0,0,0-.63-7,68.29,68.29,0,0,1-3.33-8.67,69.36,69.36,0,0,1-4-23.68q0-28.77,20.48-48.9t49.35-20.14q27.74,0,47.19,18.33a5.21,5.21,0,0,0,3.2,1.09,5,5,0,0,0,4-2"/></g></g></svg>