<svg xmlns="http://www.w3.org/2000/svg" viewBox="0 0 784.51 110.41"><defs><style>.cls-1{fill:#435282;}</style></defs><title>logo</title><g id="Capa_2" data-name="Capa 2"><g id="Capa_1-2" data-name="Capa 1"><path class="cls-1" d="M62,100a35.26,35.26,0,0,1-25.31,10.27A35.46,35.46,0,0,1,10.6,99.69,35.3,35.3,0,0,1,0,73.68,35.06,35.06,0,0,1,10.67,47.8a35.53,35.53,0,0,1,26-10.59A35.17,35.17,0,0,1,61,46.6L49.94,61.43a17.37,17.37,0,0,0-13.27-5.74,17.68,17.68,0,0,0-12.86,5.24,17.21,17.21,0,0,0-5.34,12.75,17.41,17.41,0,0,0,5.34,12.81,17.52,17.52,0,0,0,12.86,5.32,17,17,0,0,0,13.54-6.3Z"/><path class="cls-1" d="M159.26,108.22H139.61l-3.87-10.67a35,35,0,0,1-27.92,12.86A35.13,35.13,0,0,1,81.89,99.74,35.32,35.32,0,0,1,71.28,73.88,36.27,36.27,0,0,1,95.36,39.54,36.89,36.89,0,0,1,108,37.21a35.52,35.52,0,0,1,21,6.64,36.18,36.18,0,0,1,13.34,17.58ZM126,73.81a17.14,17.14,0,0,0-7.8-15,17.67,17.67,0,0,0-10.4-3.16q-9.57,0-14.77,7.69a18.11,18.11,0,0,0-3.29,10.43,17,17,0,0,0,7.8,14.84,17.8,17.8,0,0,0,10.26,3.29,17.6,17.6,0,0,0,12.86-5.28A17.42,17.42,0,0,0,126,73.81Z"/><path class="cls-1" d="M242.17,108.22H223.7V73.7A17.28,17.28,0,0,0,218.34,61a17.48,17.48,0,0,0-12.77-5.32,17.77,17.77,0,0,0-12.91,5.25A17.21,17.21,0,0,0,187.3,73.7v34.52H168.83V73.68A35.06,35.06,0,0,1,179.5,47.8a37.2,37.2,0,0,1,52,0,35,35,0,0,1,10.68,25.88Z"/><path class="cls-1" d="M339.72,108.22H320.08L316.2,97.55a36.79,36.79,0,0,1-53.85,2.19,35.32,35.32,0,0,1-10.61-25.86,36.27,36.27,0,0,1,24.08-34.34,36.94,36.94,0,0,1,12.59-2.33,35.52,35.52,0,0,1,21,6.64,36.12,36.12,0,0,1,13.34,17.58ZM306.47,73.81a17.14,17.14,0,0,0-7.8-15,17.67,17.67,0,0,0-10.4-3.16q-9.57,0-14.77,7.69a18.11,18.11,0,0,0-3.29,10.43A17,17,0,0,0,278,88.65a17.8,17.8,0,0,0,10.26,3.29,17.6,17.6,0,0,0,12.86-5.28A17.42,17.42,0,0,0,306.47,73.81Z"/><path class="cls-1" d="M367.76,108.22H349.29V0h18.47Z"/><path class="cls-1" d="M397.31,21.48a10.81,10.81,0,0,1-3.14,7.87,10.49,10.49,0,0,1-7.8,3.21,11,11,0,0,1-11.08-11.08,10.49,10.49,0,0,1,3.21-7.8,10.82,10.82,0,0,1,7.87-3.14,10.54,10.54,0,0,1,7.73,3.21A10.54,10.54,0,0,1,397.31,21.48Zm-1.63,86.74H377.2v-71h18.48Z"/><path class="cls-1" d="M461.76,37.21l-29,53.36h21.48V108.5H401.67l29.7-53.77H406.76V37.21Z"/><path class="cls-1" d="M554,108.22H534.33l-3.88-10.67a36.79,36.79,0,0,1-53.85,2.19A35.31,35.31,0,0,1,466,73.88a36.23,36.23,0,0,1,24.08-34.34,36.84,36.84,0,0,1,12.58-2.33,35.55,35.55,0,0,1,21,6.64A36.16,36.16,0,0,1,537,61.43ZM520.72,73.81a17.14,17.14,0,0,0-7.8-15,17.62,17.62,0,0,0-10.39-3.16,16.79,16.79,0,0,0-14.78,7.69,18.1,18.1,0,0,0-3.28,10.43,17,17,0,0,0,7.79,14.84,17.85,17.85,0,0,0,10.27,3.29,17.64,17.64,0,0,0,12.86-5.28A17.45,17.45,0,0,0,520.72,73.81Z"/><path class="cls-1" d="M636.74,73.65a35.43,35.43,0,0,1-10.6,26,36.56,36.56,0,0,1-62.59-25.94A35,35,0,0,1,574.22,47.8a35.51,35.51,0,0,1,26-10.59,36.49,36.49,0,0,1,18.06,4.66V0h18.47Zm-18.47,0a18.17,18.17,0,0,0-18.06-18,17.72,17.72,0,0,0-12.86,5.24A17.2,17.2,0,0,0,582,73.68a18.13,18.13,0,1,0,36.25,0Z"/><path class="cls-1" d="M719.38,73.68a35.46,35.46,0,0,1-10.6,25.95,36.58,36.58,0,0,1-62.6-25.95A35,35,0,0,1,656.86,47.8a36.56,36.56,0,0,1,62.52,25.88Zm-18.47,0a18.17,18.17,0,0,0-18.06-18A17.7,17.7,0,0,0,670,60.93a17.21,17.21,0,0,0-5.34,12.75,18.13,18.13,0,1,0,36.26,0Z"/><path class="cls-1" d="M784.51,87.24a18.37,18.37,0,0,1-4.38,11.93q-8.76,10.69-24.9,10.29a44.6,44.6,0,0,1-14-2.88,39.17,39.17,0,0,1-12.38-6.84l10.26-13.27q7.39,7,15.74,7h.41a14.81,14.81,0,0,0,6.15-1.23c2.38-1.1,3.56-2.65,3.56-4.66V87c-.27-2.1-1.69-3.61-4.24-4.52-1-.18-3.15-.59-6.43-1.23a54.73,54.73,0,0,1-10.4-3q-12.45-5.34-12.45-18.74,0-12.87,12.73-19.29a27.61,27.61,0,0,1,12.17-3,42.29,42.29,0,0,1,14.23,2.33q8.49,2.88,12,7.53L770.28,58.15q-4.8-4.93-10.4-4.93-8.76,0-8.76,5.76v.28q0,2.75,7.12,4.66c.36.09,3.37.69,9,1.78q17.24,3.3,17.24,21.12Z"/></g></g></svg>